<?xml version="1.0" encoding="UTF-8"?><svg id="katman_2" xmlns="http://www.w3.org/2000/svg" xmlns:xlink="http://www.w3.org/1999/xlink" viewBox="0 0 1024 1025.13"><defs><style>.cls-1{fill:url(#Adsız_degrade_659);}.cls-2{fill:#fff;}</style><linearGradient id="Adsız_degrade_659" x1="0" y1="512.56" x2="1024" y2="512.56" gradientUnits="userSpaceOnUse"><stop offset="0" stop-color="#0170f3"/><stop offset=".93" stop-color="#6738e1"/></linearGradient></defs><g id="katman_2-2"><path class="cls-1" d="M0,0h633.33c215.62,0,390.67,175.05,390.67,390.67v634.46H390.67C175.05,1025.13,0,850.07,0,634.46V0h0Z"/><g id="Layer_1"><path class="cls-2" d="M464.57,856.83c-434.85-55.23-434.85-685.61,0-740.83v208.22c-162.2,46.02-162.2,278.4,0,324.39v208.22ZM778.63,971.88l-205.93-117.34v-210.51c143.79-55.23,143.79-259.99,0-315.19V118.3c323.26,55.23,426.78,468.21,163.36,667.2l42.57,186.36v.03Z"/></g><path class="cls-2" d="M483.32,526.79c-4.57,4.13-9.55,7.28-14.93,9.45-5.38,2.17-10.91,3.26-16.6,3.26-8.31,0-15.01-2.31-20.11-6.94-5.1-4.63-7.65-10.65-7.65-18.07,0-8.81,3.39-15.64,10.16-20.49,6.77-4.85,16.29-7.28,28.56-7.28,3.23,0,6.49.21,9.79.63,3.29.42,6.66,1.07,10.12,1.97v-.59c0-6.41-1.53-11.15-4.6-14.22-3.07-3.07-7.83-4.6-14.3-4.6-4.35,0-9.2,1.17-14.55,3.51-5.35,2.34-8.89,3.51-10.62,3.51-1.62,0-2.96-.65-4.01-1.97-1.06-1.31-1.59-3-1.59-5.06,0-3.29,3.08-6.08,9.24-8.36,6.16-2.29,14.04-3.43,23.63-3.43s17.23,2.5,22.25,7.49c5.02,4.99,7.53,12.36,7.53,22.12v37.89h4.1c3.96,0,6.61.42,7.95,1.25,1.34.84,2.01,2.34,2.01,4.52,0,2.01-.56,3.51-1.67,4.52-1.12,1-2.79,1.51-5.02,1.51h-13.13c-1.56,0-2.84-.47-3.85-1.42-1-.95-1.67-2.31-2.01-4.1l-.67-5.1ZM482.65,500.45c-3.07-1-6.04-1.74-8.91-2.22-2.87-.47-5.73-.71-8.57-.71-8.59,0-15.36,1.45-20.32,4.35-4.96,2.9-7.44,6.8-7.44,11.71,0,3.79,1.55,6.91,4.64,9.37,3.09,2.45,7.04,3.68,11.83,3.68,7.08,0,13.65-1.85,19.7-5.56,6.05-3.71,9.07-7.57,9.07-11.58v-9.03Z"/><path class="cls-2" d="M574.65,525.62h26.85c2.17,0,3.78.46,4.81,1.38,1.03.92,1.55,2.38,1.55,4.39,0,2.29-.49,3.86-1.46,4.73-.98.86-2.77,1.3-5.39,1.3h-64.82c-2.23,0-3.9-.5-5.02-1.51-1.12-1-1.67-2.51-1.67-4.52s.59-3.4,1.76-4.35c1.17-.95,2.93-1.42,5.27-1.42h25.51v-53.69h-16.37c-2.29,0-4.04-.51-5.25-1.54-1.2-1.02-1.8-2.51-1.8-4.44s.56-3.39,1.67-4.36c1.11-.97,2.79-1.45,5.02-1.45h24.5c1.56,0,2.77.33,3.64.98.79.59,1.21,1.56,1.21,2.55v61.95ZM559.17,436.05c0-6.02.54-9.81,1.63-11.37,1.09-1.56,3.42-2.34,6.98-2.34s5.74.66,6.86,1.97c1.12,1.31,1.67,4.42,1.67,9.33s-.52,7.77-1.55,8.91c-1.03,1.14-3.36,1.71-6.98,1.71s-5.9-.53-6.98-1.59c-1.09-1.06-1.63-3.26-1.63-6.61Z"/></g></svg>